<svg id="Group_180" data-name="Group 180" xmlns="http://www.w3.org/2000/svg" width="61.74" height="61.739" viewBox="0 0 61.74 61.739">
  <g id="Group_178" data-name="Group 178">
    <path id="Path_2224" data-name="Path 2224" d="M1803.643,976.161a30.869,30.869,0,1,1,30.87-30.869A30.9,30.9,0,0,1,1803.643,976.161Z" transform="translate(-1772.773 -914.422)" fill="#c4c4c4"/>
  </g>
  <g id="Group_179" data-name="Group 179" transform="translate(22.241 12.366)">
    <path id="Path_2225" data-name="Path 2225" d="M1796.225,944V961.9a.467.467,0,0,0,.466.466h6.644a.466.466,0,0,0,.466-.466V943.713h4.817a.466.466,0,0,0,.464-.427l.464-5.478a.466.466,0,0,0-.465-.505h-5.28v-3.887a1.65,1.65,0,0,1,1.65-1.649h3.712a.466.466,0,0,0,.466-.466v-5.479a.467.467,0,0,0-.466-.466h-6.273a6.665,6.665,0,0,0-6.665,6.665V937.3H1792.9a.466.466,0,0,0-.466.466v5.479a.466.466,0,0,0,.466.466h3.322Z" transform="translate(-1792.437 -925.355)" fill="#fff" fill-rule="evenodd"/>
  </g>
</svg>
