<svg xmlns="http://www.w3.org/2000/svg" width="61.74" height="61.739" viewBox="0 0 61.74 61.739">
  <g id="Group_177" data-name="Group 177" transform="translate(0)">
    <g id="Group_170" data-name="Group 170">
      <path id="Path_2218" data-name="Path 2218" d="M1960.5,976.161a30.869,30.869,0,1,1,30.87-30.869A30.9,30.9,0,0,1,1960.5,976.161Z" transform="translate(-1929.626 -914.422)" fill="#c4c4c4"/>
    </g>
    <g id="Group_176" data-name="Group 176" transform="translate(12.766 16.052)">
      <g id="Group_171" data-name="Group 171">
        <path id="Path_2219" data-name="Path 2219" d="M1976.758,932.166a14.811,14.811,0,0,1-3.634,1.038c.585-.1,1.449-1.158,1.794-1.587a6.688,6.688,0,0,0,1.21-2.2c.031-.062.055-.141-.008-.189a.2.2,0,0,0-.192.016,18.609,18.609,0,0,1-4.317,1.652.29.29,0,0,1-.3-.079,3.364,3.364,0,0,0-.378-.386,7.636,7.636,0,0,0-2.091-1.281,7.283,7.283,0,0,0-3.208-.517,7.667,7.667,0,0,0-3.043.86,7.858,7.858,0,0,0-2.455,2.005,7.52,7.52,0,0,0-1.466,2.936,7.97,7.97,0,0,0-.078,3.1c.024.173.009.2-.148.173-5.93-.882-10.846-3-14.835-7.551-.173-.2-.268-.2-.409.015-1.746,2.617-.9,6.822,1.283,8.889.291.275.589.551.912.8a7.58,7.58,0,0,1-2.863-.8c-.173-.11-.26-.047-.276.149a4.556,4.556,0,0,0,.047.849,7.605,7.605,0,0,0,4.688,6.065,4.418,4.418,0,0,0,.951.291,8.473,8.473,0,0,1-2.807.087c-.2-.04-.283.063-.2.259,1.235,3.367,3.9,4.369,5.9,4.941.268.046.535.046.8.11-.016.024-.031.024-.047.047-.662,1.01-2.959,1.761-4.029,2.134a14.429,14.429,0,0,1-6.118.784c-.329-.049-.4-.045-.488,0s-.011.133.094.219c.417.276.843.519,1.275.756a20.141,20.141,0,0,0,4.09,1.635c7.351,2.03,15.63.538,21.148-4.945,4.334-4.306,5.853-10.244,5.853-16.19,0-.233.275-.361.439-.484a14.242,14.242,0,0,0,2.864-2.993.865.865,0,0,0,.177-.573v-.032C1976.893,932.071,1976.905,932.1,1976.758,932.166Z" transform="translate(-1940.913 -928.614)" fill="#fff"/>
      </g>
      <g id="Group_172" data-name="Group 172" transform="translate(10.685 29.508)">
        <path id="Path_2220" data-name="Path 2220" d="M1950.36,954.7Z" transform="translate(-1950.36 -954.703)" fill="#fff" fill-rule="evenodd"/>
      </g>
      <g id="Group_173" data-name="Group 173" transform="translate(10.41 29.508)">
        <path id="Path_2221" data-name="Path 2221" d="M1950.392,954.7c-.046,0-.594,0,0,0Z" transform="translate(-1950.117 -954.703)" fill="#fff" fill-rule="evenodd"/>
      </g>
      <g id="Group_174" data-name="Group 174" transform="translate(11.896 29.513)">
        <path id="Path_2222" data-name="Path 2222" d="M1951.431,954.734c0-.061.638,0,0,0C1951.431,954.7,1951.51,954.734,1951.431,954.734Z" transform="translate(-1951.431 -954.707)" fill="#fff" fill-rule="evenodd"/>
      </g>
      <g id="Group_175" data-name="Group 175" transform="translate(24.474 0.043)">
        <path id="Path_2223" data-name="Path 2223" d="M1962.7,928.652a.129.129,0,0,1-.149,0Z" transform="translate(-1962.551 -928.652)" fill="#fff" fill-rule="evenodd"/>
      </g>
    </g>
  </g>
</svg>
