<svg xmlns="http://www.w3.org/2000/svg" width="61.739" height="61.74" viewBox="0 0 61.739 61.74">
  <g id="Group_184" data-name="Group 184" transform="translate(0 0)">
    <g id="Group_181" data-name="Group 181">
      <path id="Path_2226" data-name="Path 2226" d="M1882.07,976.447a30.87,30.87,0,1,1,30.869-30.87A30.9,30.9,0,0,1,1882.07,976.447Z" transform="translate(-1851.2 -914.707)" fill="#c4c4c4"/>
    </g>
    <g id="Group_183" data-name="Group 183" transform="translate(12.937 18.261)">
      <g id="Group_182" data-name="Group 182">
        <path id="Path_2227" data-name="Path 2227" d="M1899.053,938.78a7.928,7.928,0,0,0-7.928-7.928h-20.56a7.928,7.928,0,0,0-7.927,7.928v9.637a7.927,7.927,0,0,0,7.927,7.927h20.56a7.928,7.928,0,0,0,7.928-7.927Zm-12.972,5.3-8.2,4.5c-.356.192-.677-.066-.677-.47v-9.232c0-.411.331-.668.688-.465l8.257,4.733A.538.538,0,0,1,1886.082,944.083Z" transform="translate(-1862.638 -930.852)" fill="#fff"/>
      </g>
    </g>
  </g>
</svg>
